<svg width="101" height="64" viewBox="0 0 101 64" fill="none" xmlns="http://www.w3.org/2000/svg">
<path d="M89.6276 39.619C88.8518 42.5291 86.9705 45.3205 84.1023 47.8172C81.2341 50.314 77.4414 52.462 72.9632 54.1257C71.8372 51.5962 64.9125 49.5238 55.8484 48.9448C56.8055 45.3181 58.7759 41.9352 60.1271 39.9848C62.2664 40.7162 64.7436 41.1429 67.5585 41.1429C87.5446 41.1429 84.4482 22.8571 84.4482 22.8571C84.4482 22.8571 81.6332 25.9048 73.1884 25.9048H67.5585C65.0542 25.9044 62.5951 26.2657 60.4348 26.9515C58.2745 27.6372 56.4914 28.6226 55.2694 29.8059C54.0473 30.9892 53.4306 32.3276 53.4829 33.6829C53.5352 35.0383 54.2546 36.3616 55.5669 37.5162C59.2826 35.4133 63.2798 33.5238 67.5585 32C60.1271 36.0533 54.4409 41.1429 50.6689 46.0191C47.1221 42.2705 42.6745 39.4057 39.4091 38.0952C42.0552 38.7048 44.5323 39.619 46.8969 40.5333C47.5162 39.8019 47.854 38.979 47.854 38.0952C47.5725 29.7752 22.5195 30.4762 22.5195 30.4762C24.2648 31.7562 25.3344 33.3714 25.3344 35.0476V38.0952C25.3344 41.4476 30.4013 44.1905 36.5942 44.1905C39.4091 44.1905 41.9426 43.6419 43.913 42.6667C45.2079 44.5867 46.165 46.781 46.6717 48.8838C36.9883 49.341 29.5569 51.4743 28.3746 54.1562C18.0719 50.2857 11.2598 43.8552 11.2598 36.5714C11.2598 24.8076 28.9376 15.2381 50.6689 15.2381V24.381L78.8183 12.1905L50.6689 0V9.14286C37.2307 9.14286 24.3428 12.0326 14.8406 17.1765C5.33832 22.3204 0 29.2969 0 36.5714C0 43.8459 5.33832 50.8225 14.8406 55.9664C24.3428 61.1102 37.2307 64 50.6689 64C76.7352 64 98.1851 53.3333 101 39.619H89.6276Z" fill="#2BD159"/>
</svg>
